<?xml version="1.0" encoding="utf-8"?>
<svg viewBox="0 0 640 512" xmlns="http://www.w3.org/2000/svg" xmlns:bx="https://boxy-svg.com">
  <defs>
    <bx:guide x="125.188" y="267.339" angle="90"/>
    <bx:guide x="320.915" y="414.134" angle="0"/>
  </defs>
  <path d="M 512 32 C 529.7 32 544 46.3 544 64 C 544 81.7 529.7 96 512 96 L 418.356 96 L 418.356 76.355 L 191.637 76.355 L 191.637 96 L 128 96 C 110.3 96 96 81.7 96 64 C 96 46.3 110.3 32 128 32 L 256 32 C 270.6 12.6 293.8 0 320 0 C 346.2 0 369.4 12.6 384 32 Z M 512 448 C 529.7 448 544 462.3 544 480 C 544 497.7 529.7 512 512 512 L 128 512 C 110.3 512 96 497.7 96 480 C 96 462.3 110.3 448 128 448 L 237.514 448 L 237.514 472.732 L 418.356 472.732 L 418.356 448 Z M 439.6 320 L 584.4 320 L 512 195.8 Z M 512 416 C 475.033 416 441.728 404.256 418.356 385.458 L 418.356 261.018 L 487.9 141.8 C 492.9 133.2 502.1 128 512 128 C 521.9 128 531.1 133.3 536.1 141.8 L 631.3 305 C 637 314.8 640.6 326.1 638 337.1 C 627.2 382 574.9 416 512 416 Z M 126.8 195.8 L 54.4 320 L 199.3 320 Z M 0.9 337.1 C -1.7 326.1 1.9 314.8 7.6 305 L 102.8 141.8 C 107.8 133.2 117 128 126.9 128 C 136.8 128 146 133.3 151 141.8 L 191.637 211.463 L 191.637 246.378 L 212.004 246.378 L 237.514 290.11 L 237.514 368.28 C 215.274 396.835 174.025 416 126.8 416 C 63.9 416 11.7 382 0.9 337.1 Z" style=""/>
  <path d="M 231.637 206.378 L 231.637 116.355 L 378.356 116.355 L 378.356 432.732 L 277.514 432.732 L 277.514 206.378 Z" style="paint-order: stroke; stroke-linecap: round; stroke-linejoin: round; stroke-miterlimit: 1; stroke-width: 80px;"/>
</svg>