<?xml version="1.0" encoding="utf-8"?>
<svg viewBox="0 0 640 512" xmlns="http://www.w3.org/2000/svg" xmlns:bx="https://boxy-svg.com">
  <defs>
    <bx:guide x="125.188" y="267.339" angle="90"/>
    <bx:guide x="320.915" y="414.134" angle="0"/>
  </defs>
  <path d="M 512 32 C 529.7 32 544 46.3 544 64 C 544 81.7 529.7 96 512 96 L 419.15 96 C 407.603 87.14 393.505 79.122 380.129 74.735 C 363.218 69.188 340.889 66.088 319.676 66.088 C 294.751 66.088 267.25 72.439 245.63 81.96 C 238.075 85.648 229.753 90.61 222.301 96 L 128 96 C 110.3 96 96 81.7 96 64 C 96 46.3 110.3 32 128 32 L 256 32 C 270.6 12.6 293.8 0 320 0 C 346.2 0 369.4 12.6 384 32 Z M 352.223 153.203 L 339.48 153.203 C 338.602 152.68 337.748 152.219 336.935 151.834 C 330.771 148.919 319.773 146.589 313.184 146.589 C 309.059 146.589 302.123 147.528 298.061 148.693 C 295.136 149.532 290.968 151.29 287.496 153.077 C 286.639 152.694 285.79 152.297 284.948 151.885 C 295.636 147.355 305.443 146.088 319.676 146.088 C 335.395 146.088 345.057 147.425 355.196 150.75 C 355.644 150.897 356.077 151.039 356.497 151.178 C 355.095 151.894 353.67 152.569 352.223 153.203 Z M 512 448 C 529.7 448 544 462.3 544 480 C 544 497.7 529.7 512 512 512 L 128 512 C 110.3 512 96 497.7 96 480 C 96 462.3 110.3 448 128 448 L 164.118 448 L 164.118 465.062 L 467.876 465.062 L 467.876 448 Z M 584.4 320 L 512 195.8 L 439.768 319.711 L 420.613 319.711 C 424.257 315.354 427.723 310.927 430.988 306.447 C 441.984 291.359 451.801 272.763 457.466 256.121 C 463.175 239.346 466.578 218.694 466.578 200.872 C 466.578 194.389 466.099 187.536 465.2 180.715 L 487.9 141.8 C 492.9 133.2 502.1 128 512 128 C 521.9 128 531.1 133.3 536.1 141.8 L 631.3 305 C 637 314.8 640.6 326.1 638 337.1 C 627.2 382 574.9 416 512 416 C 496.493 416 481.631 413.934 467.876 410.147 L 467.876 320 Z M 126.8 195.8 L 54.4 320 L 181.17 320 C 180.846 320.242 180.521 320.484 180.195 320.727 L 164.118 332.7 L 164.118 411.859 C 152.311 414.552 139.781 416 126.8 416 C 63.9 416 11.7 382 0.9 337.1 C -1.7 326.1 1.9 314.8 7.6 305 L 102.8 141.8 C 107.8 133.2 117 128 126.9 128 C 136.8 128 146 133.3 151 141.8 L 170.058 174.471 C 166.045 189.39 163.607 205.458 162.841 221.223 L 161.212 254.751 Z M 193.747 310.487 L 165.742 262.512 L 221.415 262.512 L 231.553 279.891 C 220.297 289.587 207.751 299.744 193.747 310.487 Z" style=""/>
  <path d="M 204.118 352.784 Q 262.114 309.504 295.872 274.231 Q 329.63 238.958 329.63 208.229 Q 329.63 197.842 325.086 192.216 Q 320.542 186.589 313.184 186.589 Q 304.528 186.589 299.551 195.462 Q 294.574 204.334 295.872 222.512 L 202.82 222.512 Q 204.118 182.261 220.348 156.293 Q 236.578 130.325 262.546 118.207 Q 288.514 106.088 319.676 106.088 Q 375.074 106.088 400.826 132.706 Q 426.578 159.323 426.578 200.872 Q 426.578 244.584 398.662 282.887 Q 370.746 321.19 328.765 347.591 L 427.876 347.591 L 427.876 425.062 L 204.118 425.062 L 204.118 352.784 Z" style="paint-order: stroke; stroke-linecap: round; stroke-linejoin: round; stroke-miterlimit: 1; stroke-width: 80px;"/>
</svg>