<?xml version="1.0" encoding="utf-8"?>
<svg viewBox="0 0 640 512" xmlns="http://www.w3.org/2000/svg" xmlns:bx="https://boxy-svg.com">
  <defs>
    <bx:guide x="125.188" y="267.339" angle="90"/>
    <bx:guide x="320.915" y="414.134" angle="0"/>
  </defs>
  <path d="M 512 32 C 529.7 32 544 46.3 544 64 C 544 81.7 529.7 96 512 96 L 444.919 96 L 444.919 77.774 L 280.674 77.774 L 250.88 120.266 C 246.534 112.848 243.355 104.674 241.6 96 L 128 96 C 110.3 96 96 81.7 96 64 C 96 46.3 110.3 32 128 32 L 256 32 C 270.6 12.6 293.8 0 320 0 C 346.2 0 369.4 12.6 384 32 Z M 512 448 C 529.7 448 544 462.3 544 480 C 544 497.7 529.7 512 512 512 L 128 512 C 110.3 512 96 497.7 96 480 C 96 462.3 110.3 448 128 448 L 267.972 448 L 267.972 469.39 L 444.919 469.39 L 444.919 448 Z M 584.4 320 L 512 195.8 L 475.343 258.684 L 444.919 258.684 L 444.919 215.482 L 487.9 141.8 C 492.9 133.2 502.1 128 512 128 C 521.9 128 531.1 133.3 536.1 141.8 L 631.3 305 C 637 314.8 640.6 326.1 638 337.1 C 627.2 382 574.9 416 512 416 C 499.53 416 487.477 414.664 476.081 412.171 L 476.081 320 Z M 126.8 195.8 L 54.4 320 L 132.506 320 L 132.506 415.906 C 130.614 415.969 128.712 416 126.8 416 C 63.9 416 11.7 382 0.9 337.1 C -1.7 326.1 1.9 314.8 7.6 305 L 102.8 141.8 C 107.8 133.2 117 128 126.9 128 C 136.8 128 146 133.3 151 141.8 L 189.501 207.802 L 159.109 251.148 Z M 212.506 341.782 L 212.506 338.684 L 252.497 338.684 C 252.221 339.723 251.922 340.756 251.602 341.782 Z M 396.081 338.684 L 396.081 341.782 L 387.288 341.782 C 386.97 340.756 386.673 339.723 386.399 338.684 Z" style=""/>
  <path d="M 172.506 381.782 L 172.506 301.714 L 301.48 117.774 L 404.919 117.774 L 404.919 298.684 L 436.081 298.684 L 436.081 381.782 L 404.919 381.782 L 404.919 429.39 L 307.972 429.39 L 307.972 381.782 Z M 315.762 227.272 L 269.02 298.684 L 315.762 298.684 Z" style="paint-order: stroke; stroke-linecap: round; stroke-linejoin: round; stroke-miterlimit: 1; stroke-width: 80px;"/>
</svg>