<?xml version="1.0" encoding="utf-8"?>
<svg viewBox="0 0 640 512" xmlns="http://www.w3.org/2000/svg" xmlns:bx="https://boxy-svg.com">
  <defs>
    <bx:guide x="125.188" y="267.339" angle="90"/>
    <bx:guide x="320.915" y="414.134" angle="0"/>
  </defs>
  <path d="M 512 32 C 529.7 32 544 46.3 544 64 C 544 81.7 529.7 96 512 96 L 465.755 96 L 465.755 73.013 L 173.683 73.013 L 173.683 96 L 128 96 C 110.3 96 96 81.7 96 64 C 96 46.3 110.3 32 128 32 L 256 32 C 270.6 12.6 293.8 0 320 0 C 346.2 0 369.4 12.6 384 32 Z M 352.223 153.203 L 287.78 153.203 C 287.638 153.14 287.495 153.077 287.353 153.013 L 352.654 153.013 C 352.51 153.077 352.367 153.14 352.223 153.203 Z M 512 448 C 529.7 448 544 462.3 544 480 C 544 497.7 529.7 512 512 512 L 128 512 C 110.3 512 96 497.7 96 480 C 96 462.3 110.3 448 128 448 L 241.736 448 C 244.601 449.623 247.465 451.126 250.258 452.467 C 272.72 463.249 303.064 469.39 331.838 469.39 C 351.978 469.39 374.048 465.905 390.942 459.848 C 399.012 456.955 407.446 452.845 415.454 448 Z M 584.4 320 L 512 195.8 L 472.203 264.071 C 470.944 260.165 469.58 256.394 468.13 252.807 C 465.709 247.677 462.793 242.497 459.498 237.409 L 465.755 237.409 L 465.755 179.763 L 487.9 141.8 C 492.9 133.2 502.1 128 512 128 C 521.9 128 531.1 133.3 536.1 141.8 L 631.3 305 C 637 314.8 640.6 326.1 638 337.1 C 627.2 382 574.9 416 512 416 C 492.647 416 474.298 412.781 457.852 407.017 C 463.541 398.194 468.37 388.702 471.645 379.652 C 477.79 362.672 481.324 340.409 481.336 320 Z M 392.7 305 L 398.625 294.842 C 400.72 302.19 401.336 309.705 401.336 319.892 C 401.336 334.078 400.002 342.531 396.42 352.426 C 395.686 354.453 394.997 356.224 394.301 357.818 C 390.702 351.531 387.972 344.896 386.222 337.999 C 387.493 332.038 388.284 324.194 388.284 318.16 C 388.284 316.974 388.245 315.702 388.171 314.376 C 389.405 311.145 390.954 308.002 392.7 305 Z M 126.8 195.8 L 54.4 320 L 173.374 320 L 173.267 326.94 C 173.197 331.519 173.335 336.415 173.683 341.349 L 173.683 346.908 L 174.163 346.908 C 174.841 353.52 175.897 360.01 177.331 365.699 C 180.268 377.351 186.277 391.048 192.351 401.394 C 192.53 401.674 192.712 401.955 192.895 402.237 C 173.597 410.975 150.982 416 126.8 416 C 63.9 416 11.7 382 0.9 337.1 C -1.7 326.1 1.9 314.8 7.6 305 L 102.8 141.8 C 107.8 133.2 117 128 126.9 128 C 136.8 128 146 133.3 151 141.8 L 173.683 180.685 L 173.683 276.115 Z" style=""/>
  <path d="M 425.755 197.409 L 300.243 197.409 L 300.243 233.764 Q 308.466 226.407 321.667 222.079 Q 334.867 217.751 351.314 217.751 Q 380.744 217.751 401.086 231.6 Q 421.427 245.45 431.382 268.605 Q 441.336 291.76 441.336 319.892 Q 441.336 371.828 412.122 400.609 Q 382.908 429.39 331.838 429.39 Q 294.617 429.39 267.567 416.406 Q 240.517 403.422 226.451 380.484 Q 212.385 357.545 213.25 328.115 L 306.735 328.115 Q 306.735 335.04 311.496 341.099 Q 316.257 347.158 327.077 347.158 Q 337.897 347.158 343.09 339.368 Q 348.284 331.577 348.284 318.16 Q 348.284 305.609 342.441 299.117 Q 336.598 292.625 325.778 292.625 Q 316.69 292.625 311.929 296.953 Q 307.168 301.281 307.168 306.908 L 213.683 306.908 L 213.683 113.013 L 425.755 113.013 Z" style="paint-order: stroke; stroke-linecap: round; stroke-linejoin: round; stroke-miterlimit: 1; stroke-width: 80px;"/>
</svg>