<?xml version="1.0" encoding="utf-8"?>
<svg viewBox="0 0 640 512" xmlns="http://www.w3.org/2000/svg" xmlns:bx="https://boxy-svg.com">
  <defs>
    <bx:guide x="125.188" y="267.339" angle="90"/>
    <bx:guide x="320.915" y="414.134" angle="0"/>
    <style bx:fonts="Poppins">@import url(https://fonts.googleapis.com/css2?family=Poppins%3Aital%2Cwght%400%2C100%3B0%2C200%3B0%2C300%3B0%2C400%3B0%2C500%3B0%2C600%3B0%2C700%3B0%2C800%3B0%2C900%3B1%2C100%3B1%2C200%3B1%2C300%3B1%2C400%3B1%2C500%3B1%2C600%3B1%2C700%3B1%2C800%3B1%2C900&amp;display=swap);</style>
  </defs>
  <path d="M 512 32 C 529.7 32 544 46.3 544 64 C 544 81.7 529.7 96 512 96 L 398.4 96 C 393.216 121.719 375.612 142.965 352.223 153.203 L 287.78 153.203 C 264.389 142.867 246.784 121.62 241.6 96 L 128 96 C 110.3 96 96 81.7 96 64 C 96 46.3 110.3 32 128 32 L 256 32 C 270.6 12.6 293.8 0 320 0 C 346.2 0 369.4 12.6 384 32 Z M 352 448 L 512 448 C 529.7 448 544 462.3 544 480 C 544 497.7 529.7 512 512 512 L 128 512 C 110.3 512 96 497.7 96 480 C 96 462.3 110.3 448 128 448 L 288 448 L 288 447.969 L 352 447.969 Z M 439.6 320 L 584.4 320 L 512 195.8 Z M 512 416 C 449.1 416 396.8 382 386 337.1 C 383.4 326.1 387 314.8 392.7 305 L 487.9 141.8 C 492.9 133.2 502.1 128 512 128 C 521.9 128 531.1 133.3 536.1 141.8 L 631.3 305 C 637 314.8 640.6 326.1 638 337.1 C 627.2 382 574.9 416 512 416 Z M 126.8 195.8 L 54.4 320 L 199.3 320 Z M 0.9 337.1 C -1.7 326.1 1.9 314.8 7.6 305 L 102.8 141.8 C 107.8 133.2 117 128 126.9 128 C 136.8 128 146 133.3 151 141.8 L 246.2 305 C 251.9 314.8 255.5 326.1 252.9 337.1 C 242 382 189.7 416 126.8 416 C 63.9 416 11.7 382 0.9 337.1 Z" style=""/>
  <text style="font-family: Poppins; font-size: 432.8px; font-weight: 900; paint-order: stroke; stroke: rgb(255, 255, 255); stroke-linecap: round; stroke-linejoin: round; stroke-miterlimit: 1; stroke-width: 80px; white-space: pre;" x="228.667" y="419.834" dx="-1.358" dy="12.898">1</text>
</svg>